Coordinates
version=1
nRows=24
nColumns=24
inDegrees=yes

Units are S.I. units (second, meters, Newtons, ...)
Angles are in degrees.

endheader
time	pelvis_tilt	pelvis_list	pelvis_rotation	pelvis_tx	pelvis_ty	pelvis_tz	hip_flexion_r	hip_adduction_r	hip_rotation_r	knee_angle_r	ankle_angle_r	subtalar_angle_r	mtp_angle_r	hip_flexion_l	hip_adduction_l	hip_rotation_l	knee_angle_l	ankle_angle_l	subtalar_angle_l	mtp_angle_l	lumbar_extension	lumbar_bending	lumbar_rotation
      0.98416667	     -6.65723274	     -0.68302738	     -2.98900781	     -0.05950196	      1.02865787	      0.26828593	     -6.01621363	      2.64342703	     -1.16737897	    -17.41075047	     17.81205816	      3.14638741	      9.14960224	     29.94235826	     -1.20157866	      3.71663175	     -4.32445068	      0.47737968	     -0.41063925	      5.46142682	    -12.03619550	      1.96248633	      4.41140347
      0.98833333	     -6.63559186	     -0.56684513	     -3.04986772	     -0.05340856	      1.02803385	      0.26795401	     -6.05033031	      2.42009492	     -1.29151542	    -18.12821498	     17.78665401	      3.48733870	      9.38596676	     30.09099383	     -1.00282508	      3.73150771	     -5.25260659	      0.22474037	     -0.42559454	      5.55135530	    -11.99577246	      1.75832922	      4.34946252
      0.99250000	     -6.60484162	     -0.46338347	     -3.09549741	     -0.04732636	      1.02745333	      0.26756953	     -6.07425018	      2.20553424	     -1.44295731	    -18.88238287	     17.73660056	      3.86710988	      9.78372408	     30.25582735	     -0.81051633	      3.72228713	     -6.25000355	     -0.02833537	     -0.41705822	      5.69232215	    -11.97462052	      1.59920166	      4.28933916
      0.99666667	     -6.56812209	     -0.33636993	     -3.15985427	     -0.04119850	      1.02694800	      0.26725281	     -6.09220144	      1.96926797	     -1.51834780	    -19.64841012	     17.50923749	      4.02657412	     13.06021631	     30.41131832	     -0.61334461	      3.65546463	     -7.26913402	     -0.23800687	     -0.36316012	      6.74840383	    -11.95385885	      1.36839234	      4.22023065
      1.00083333	     -6.54873642	     -0.20012123	     -3.19869206	     -0.03504198	      1.02644184	      0.26686223	     -6.06511707	      1.71632631	     -1.66273873	    -20.47824068	     17.33537055	      4.30790730	     13.10806363	     30.57852947	     -0.39399116	      3.67211674	     -8.28505231	     -0.48692935	     -0.42648693	      6.74899114	    -11.90029380	      1.12556170	      4.13749394
      1.00500000	     -6.52002764	     -0.07528821	     -3.24001251	     -0.02890116	      1.02598985	      0.26644559	     -6.02070178	      1.46795698	     -1.81356413	    -21.35620389	     17.14543913	      4.64466232	     13.20564579	     30.75744247	     -0.19048885	      3.63206165	     -9.36069092	     -0.68592546	     -0.42864121	      6.75152038	    -11.86671705	      0.91592569	      4.05618204
      1.00916667	     -6.47885148	      0.05526711	     -3.27646546	     -0.02273373	      1.02560042	      0.26601754	     -5.97005543	      1.20906375	     -1.96537556	    -22.26971794	     16.89676195	      4.96100352	     13.34709336	     30.92330415	      0.01542147	      3.56924447	    -10.45072959	     -0.84671009	     -0.40011108	      6.75319533	    -11.84765423	      0.69281674	      3.96822270
      1.01333333	     -6.42077086	      0.17125958	     -3.32792815	     -0.01658333	      1.02528520	      0.26562533	     -5.91361885	      0.96586454	     -2.06685015	    -23.21571507	     16.56336076	      5.16036103	     15.64655678	     31.08941555	      0.18689541	      3.38622551	    -11.59101929	     -0.92811248	     -0.19685904	      6.72685024	    -11.85822991	      0.49556721	      3.88250402
      1.01750000	     -6.37218901	      0.29958081	     -3.34005538	     -0.01039986	      1.02498779	      0.26509847	     -5.81803217	      0.69247058	     -2.28140392	    -24.22552063	     16.22282831	      5.52546206	     15.74094608	     31.22852011	      0.40283216	      3.39578703	    -12.65881174	     -1.06620489	     -0.28365595	      6.71913302	    -11.84720122	      0.28418894	      3.80269178
      1.02166667	     -6.31772286	      0.43335902	     -3.37156610	     -0.00420232	      1.02475658	      0.26462650	     -5.70377290	      0.41240659	     -2.44614980	    -25.27360545	     15.81530767	      5.83878341	     15.87718623	     31.35408087	      0.60432945	      3.32370314	    -13.72417805	     -1.13469300	     -0.26910854	      6.70736676	    -11.83933031	      0.04933638	      3.70772856
      1.02583333	     -6.24560049	      0.56388014	     -3.40096760	      0.00198226	      1.02458650	      0.26412105	     -5.57533769	      0.12393775	     -2.63252606	    -26.38001811	     15.39547769	      6.15521427	     16.10588219	     31.45470921	      0.80051043	      3.22267020	    -14.78145083	     -1.16752262	     -0.21484804	      6.68326723	    -11.86013172	     -0.15361520	      3.61999189
      1.03000000	     -6.16597385	      0.69479191	     -3.44359777	      0.00818381	      1.02449571	      0.26367788	     -5.43898940	     -0.16056454	     -2.75448542	    -27.49407476	     14.81561891	      6.32645862	     19.08030250	     31.53096574	      0.98037512	      3.06803436	    -15.81966977	     -1.11132016	     -0.08650821	      6.29471307	    -11.88637970	     -0.38842597	      3.52204658
      1.03416667	     -6.08731330	      0.82726593	     -3.45576086	      0.01437475	      1.02443515	      0.26311287	     -5.26613685	     -0.46555180	     -2.96658381	    -28.68175745	     14.26594696	      6.67393762	     19.15461153	     31.57074269	      1.19127554	      3.04248496	    -16.77314876	     -1.11067000	     -0.13766886	      6.28300270	    -11.91121928	     -0.60440573	      3.44505378
      1.03833333	     -5.98566061	      0.96119668	     -3.47875288	      0.02053864	      1.02444827	      0.26259186	     -5.08791403	     -0.77582835	     -3.14949599	    -29.91176540	     13.68374918	      6.98970042	     19.34036307	     31.57517275	      1.39042178	      2.95122557	    -17.71094008	     -1.03620329	     -0.11742332	      6.25270698	    -11.96991410	     -0.83716153	      3.34791733
      1.04250000	     -5.91090771	      1.10682376	     -3.50895853	      0.02671459	      1.02448336	      0.26206375	     -4.84534875	     -1.10780364	     -3.33323434	    -31.19764379	     13.04119175	      7.28209843	     19.55655734	     31.56950657	      1.59598882	      2.86071185	    -18.57051723	     -0.94907377	     -0.09333237	      6.21512521	    -11.98481212	     -1.06328916	      3.25758139
      1.04666667	     -5.78881803	      1.24302916	     -3.53547131	      0.03284638	      1.02463985	      0.26156321	     -4.63482951	     -1.42848042	     -3.48727189	    -32.49288282	     12.26639694	      7.45842893	     22.29303604	     31.49384344	      1.79114915	      2.75079791	    -19.39352300	     -0.77068462	     -0.00334430	      5.66569251	    -12.07148198	     -1.29654964	      3.14279111
      1.05083333	     -5.70243683	      1.39146179	     -3.56228329	      0.03897161	      1.02479501	      0.26103291	     -4.35013643	     -1.77110830	     -3.64814300	    -33.84758499	     11.49514034	      7.71032817	     22.32484637	     31.40798320	      2.00769293	      2.71748158	    -20.11485021	     -0.64265096	     -0.06837938	      5.66018110	    -12.10883520	     -1.54454592	      3.06718957
      1.05500000	     -5.60420519	      1.54356769	     -3.58484593	      0.04503747	      1.02498520	      0.26049442	     -4.04080204	     -2.12953606	     -3.83213021	    -35.26044626	     10.76246387	      8.00017629	     22.42594797	     31.30382051	      2.22521966	      2.62819886	    -20.82165583	     -0.47137677	     -0.09082826	      5.63837388	    -12.16336284	     -1.78184085	      2.97342041
      1.05916667	     -5.50813667	      1.68996435	     -3.61494853	      0.05108572	      1.02525055	      0.25999876	     -3.70993863	     -2.47349556	     -3.95768827	    -36.68014623	      9.89402614	      8.16863120	     22.48989103	     31.15546939	      2.43579761	      2.57794077	    -21.43656991	     -0.25755006	     -0.12432808	      5.62535381	    -12.21758367	     -2.02283153	      2.88278226
      1.06333333	     -5.40848516	      1.85852635	     -3.64179077	      0.05708156	      1.02553097	      0.25949277	     -3.34181158	     -2.85717053	     -4.12083684	    -38.16532575	      9.09140041	      8.41910601	     22.64366499	     30.99224661	      2.66625241	      2.47700910	    -22.02351249	     -0.03938965	     -0.13739553	      5.58583438	    -12.27852989	     -2.28568112	      2.77269610
      1.06750000	     -5.32363828	      2.01746356	     -3.68369513	      0.06303331	      1.02584195	      0.25900998	     -2.92989182	     -3.22790196	     -4.23381479	    -39.67127068	      8.23347159	      8.63369385	     23.00458095	     30.80956260	      2.88527693	      2.40822640	    -22.54245274	      0.25167169	     -0.19263126	      5.47631470	    -12.32206677	     -2.52911447	      2.66877787
      1.07166667	     -5.21009548	      2.17221965	     -3.71225799	      0.06893843	      1.02626989	      0.25854759	     -2.53715156	     -3.58464176	     -4.32644232	    -41.16650089	      7.25670023	      8.68006191	     23.06714752	     30.56453149	      3.10856968	      2.36690614	    -22.98986511	      0.50603540	     -0.23486219	      5.45565929	    -12.41226332	     -2.77901362	      2.57871055
      1.07583333	     -5.13749465	      2.34052421	     -3.75251571	      0.07478702	      1.02663814	      0.25811451	     -2.05819042	     -3.96104465	     -4.41545955	    -42.71952641	      6.34932872	      8.76666539	     23.19052542	     30.35159912	      3.33380600	      2.28648413	    -23.40859829	      0.76990520	     -0.28936366	      5.40453163	    -12.45282810	     -3.05013771	      2.47417265
      1.08000000	     -5.03109777	      2.50190262	     -3.80160980	      0.08059264	      1.02712942	      0.25770658	     -1.59885087	     -4.32693379	     -4.47257788	    -44.26233994	      5.38398000	      8.80734743	     23.24047694	     30.06650635	      3.55581944	      2.23892843	    -23.75697107	      1.09655027	     -0.35733512	      5.37808198	    -12.53375671	     -3.29745874	      2.37884629
